<svg data-v-6805eed4="" version="1.0" xmlns="http://www.w3.org/2000/svg" xmlns:xlink="http://www.w3.org/1999/xlink" width="100%" height="100%" viewBox="0 0 340.000000 250.000000" preserveAspectRatio="xMidYMid meet" color-interpolation-filters="sRGB" style="margin: auto;"> <rect data-v-6805eed4="" x="0" y="0" width="100%" height="100%" fill="#ffffff" fill-opacity="1" class="background"></rect> <rect data-v-6805eed4="" x="0" y="0" width="100%" height="100%" fill="url(#watermark)" fill-opacity="1" class="watermarklayer"></rect> <g data-v-6805eed4="" fill="#333" class="j-b-g-c iconbgsvg" transform="translate(76.54000854492188,37.5)"><g data-d="container" transform="translate(5.959991455078125,0)"><g mask="url(#f2c3136a-7d75-4e57-8993-0aa6ba1af59e)"><rect fill="#333" fill-opacity="0" stroke-width="2" x="0" y="0" width="175" height="175" class="image-rect"></rect> <svg filter="url(#colors8158635500)" x="0" y="0" width="175" height="175" filtersec="colorsf843492790" class="image-svg-container primary" style="overflow: visible;"><svg viewBox="0 0 144 144" xmlns="http://www.w3.org/2000/svg" style="overflow: visible;"><g transform="scale(1, 1) skewX(0)"><path d="M72 0c39.765 0 72 32.235 72 72s-32.235 72-72 72S0 111.765 0 72 32.235 0 72 0zm0 7C36.101 7 7 36.101 7 72s29.101 65 65 65 65-29.101 65-65S107.899 7 72 7z" fill="#000000"></path></g></svg></svg> <defs><filter id="colors8158635500"><feColorMatrix type="matrix" values="0 0 0 0 0.01171875  0 0 0 0 0.703125  0 0 0 0 0.6328125  0 0 0 1 0" class="icon-fecolormatrix"></feColorMatrix></filter> <filter id="colorsf843492790"><feColorMatrix type="matrix" values="0 0 0 0 0.99609375  0 0 0 0 0.99609375  0 0 0 0 0.99609375  0 0 0 1 0" class="icon-fecolormatrix"></feColorMatrix></filter> <filter id="colorsb5077488742"><feColorMatrix type="matrix" values="0 0 0 0 0  0 0 0 0 0  0 0 0 0 0  0 0 0 1 0" class="icon-fecolormatrix"></feColorMatrix></filter></defs></g></g> <g data-d="icon-text" hollow-target="textRect" transform="translate(0,47.5068244934082)"><g data-d="icon" class="iconsvg-imagesvg" transform="translate(70.95999145507812,0)"><g><!----> <svg x="0" y="0" width="45" height="45.32634971796938" filtersec="colorsb9550132265" class="image-svg-svg primary" style="overflow: visible;"><svg xmlns="http://www.w3.org/2000/svg" viewBox="0 0 99.27999877929688 100"><path fill="#f9ac19" d="M11.8 49.97V21.52l12.49-7.64 37.83 21.86 12.49-7.29L24.64 0 0 14.57v28.81l11.8 6.59z"></path><path fill="#03b4a2" d="M74.42 72.08L49.78 86.31l-12.86-7 .02-43.69-12.56-7.17.35 57.5L49.67 100l24.94-14.4-.19-13.52z"></path><path fill="#f15a24" d="M62.43 7.06l24.64 14.23.36 14.63-37.84 21.83.06 14.46 49.63-29.05-.3-28.62L74.03.14l-11.6 6.92z"></path></svg></svg> <!----></g></g> <g data-d="text" transform="translate(0,52.326351165771484)"><g data-gra="path-name" fill-rule="" stroke="#333" class="tp-name iconsvg-namesvg"><g transform="scale(1)"><g><path d="M19.69-21.43Q17.8-22.63 15.77-23.23 13.73-23.83 12.03-23.83L12.03-23.83Q9.67-23.83 8.26-22.92 6.85-22.01 6.85-20.43L6.85-20.43Q6.85-19 7.7-18.09 8.55-17.18 9.79-16.66 11.03-16.13 13.23-15.44L13.23-15.44Q15.98-14.59 17.68-13.81 19.38-13.04 20.58-11.51 21.78-9.98 21.78-7.47L21.78-7.47Q21.78-5.15 20.52-3.4 19.27-1.66 17-0.72 14.74 0.23 11.8 0.23L11.8 0.23Q8.82 0.23 6-0.93 3.17-2.09 1.12-4.02L1.12-4.02 2.79-7.23Q4.72-5.34 7.14-4.31 9.56-3.29 11.84-3.29L11.84-3.29Q14.55-3.29 16.11-4.35 17.68-5.42 17.68-7.23L17.68-7.23Q17.68-8.67 16.83-9.59 15.98-10.52 14.68-11.07 13.39-11.61 11.18-12.26L11.18-12.26Q8.47-13.08 6.77-13.85 5.07-14.62 3.89-16.13 2.71-17.64 2.71-20.12L2.71-20.12Q2.71-22.28 3.91-23.95 5.11-25.61 7.27-26.5 9.44-27.39 12.3-27.39L12.3-27.39Q14.74-27.39 17.08-26.68 19.42-25.96 21.24-24.76L21.24-24.76 19.69-21.43ZM34.84-11.07Q34.84-7.31 36.91-5.2 38.97-3.1 42.61-3.1L42.61-3.1Q46.21-3.1 48.26-5.2 50.31-7.31 50.31-11.07L50.31-11.07 50.31-27.08 54.03-27.08 54.03-11.07Q54.03-5.76 50.99-2.75 47.95 0.27 42.61 0.27L42.61 0.27Q37.23 0.27 34.18-2.75 31.12-5.76 31.12-11.07L31.12-11.07 31.12-27.08 34.84-27.08 34.84-11.07ZM63.36-23.72L63.4-27.08 85.18-27.08 85.18-24.34 67.85-3.37 85.38-3.37 85.34 0 62.9 0 62.9-2.75 80.23-23.72 63.36-23.72Z" transform="translate(-1.1200000047683716, 27.389999389648438)" stroke-width="6" stroke-linejoin="round"></path></g> <!----> <!----> <!----> <!----> <!----> <!----> <g data-gra="path-name-1" fill="#333" stroke="#333" transform="translate(93.25999450683594,0)"><g transform="scale(1)"><path d="M7-11.07Q7-7.31 9.07-5.2 11.14-3.1 14.78-3.1L14.78-3.1Q18.38-3.1 20.43-5.2 22.48-7.31 22.48-11.07L22.48-11.07 22.48-27.08 26.19-27.08 26.19-11.07Q26.19-5.76 23.16-2.75 20.12 0.27 14.78 0.27L14.78 0.27Q9.4 0.27 6.35-2.75 3.29-5.76 3.29-11.07L3.29-11.07 3.29-27.08 7-27.08 7-11.07ZM37.35 0L37.35-27.08 41.76-27.08 51.66-8.05 61.49-27.08 65.94-27.08 65.94 0 62.46 0 62.42-21.63 52.79-2.86 50.5-2.86 40.79-21.63 40.79 0 37.35 0ZM77.68 0L77.68-27.08 96.48-27.08 96.48-23.72 81.39-23.72 81.39-15.36 94.9-15.36 94.9-11.99 81.39-11.99 81.39-3.37 96.95-3.37 96.95 0 77.68 0Z" transform="translate(-3.2899999618530273, 27.389999389648438)" stroke-width="6" stroke-linejoin="round"></path></g></g></g></g> <!----></g></g></g><defs><filter id="871c0393-0b8c-408c-a79f-d762ba03f6e1">
          <feColorMatrix type="matrix" values="0 0 0 0 0  0 0 0 0 0  0 0 0 0 0  0 0 0 1 0"></feColorMatrix>
          </filter><filter id="e0febdbf-c0e6-494a-8bbe-13672ed3bcd9">
          <feColorMatrix type="matrix" values="0 0 0 0 0.99609375  0 0 0 0 0.99609375  0 0 0 0 0.99609375  0 0 0 1 0"></feColorMatrix>
          </filter></defs><mask id="f2c3136a-7d75-4e57-8993-0aa6ba1af59e"><g data-v-6805eed4="" fill="#333" class="j-b-g-c iconbgsvg"><g data-d="container"><g><rect fill="#333" fill-opacity="0" stroke-width="2" x="0" y="0" width="175" height="175" class="image-rect" stroke="#000"></rect> <svg filter="url(#e0febdbf-c0e6-494a-8bbe-13672ed3bcd9)" x="0" y="0" width="175" height="175" filtersec="colorsf843492790" class="image-svg-container primary" style="overflow: visible;"><svg viewBox="0 0 144 144" xmlns="http://www.w3.org/2000/svg" style="overflow: visible;"><g transform="scale(1, 1) skewX(0)"><path d="M72 0c39.765 0 72 32.235 72 72s-32.235 72-72 72S0 111.765 0 72 32.235 0 72 0zm0 7C36.101 7 7 36.101 7 72s29.101 65 65 65 65-29.101 65-65S107.899 7 72 7z" fill="#000000"></path></g></svg></svg> <defs><filter id="colors8158635500"><feColorMatrix type="matrix" values="0 0 0 0 0.01171875  0 0 0 0 0.703125  0 0 0 0 0.6328125  0 0 0 1 0" class="icon-fecolormatrix"></feColorMatrix></filter> <filter id="colorsf843492790"><feColorMatrix type="matrix" values="0 0 0 0 0.99609375  0 0 0 0 0.99609375  0 0 0 0 0.99609375  0 0 0 1 0" class="icon-fecolormatrix"></feColorMatrix></filter> <filter id="colorsb5077488742"><feColorMatrix type="matrix" values="0 0 0 0 0  0 0 0 0 0  0 0 0 0 0  0 0 0 1 0" class="icon-fecolormatrix"></feColorMatrix></filter></defs></g></g> <g data-d="icon-text" hollow-target="textRect" transform="translate(-5.959991455078125, 47.5068244934082)" stroke="black" stroke-width="6" stroke-linejoin="round"><g data-d="icon" class="iconsvg-imagesvg" transform="translate(70.95999145507812,0)"><g><!----> <svg x="0" y="0" width="45" height="45.32634971796938" filtersec="colorsb9550132265" class="image-svg-svg primary" style="overflow: visible;"><svg xmlns="http://www.w3.org/2000/svg" viewBox="0 0 99.27999877929688 100" style="overflow: visible;"><path fill="#f9ac19" d="M11.8 49.97V21.52l12.49-7.64 37.83 21.86 12.49-7.29L24.64 0 0 14.57v28.81l11.8 6.59z"></path><path fill="#03b4a2" d="M74.42 72.08L49.78 86.31l-12.86-7 .02-43.69-12.56-7.17.35 57.5L49.67 100l24.94-14.4-.19-13.52z"></path><path fill="#f15a24" d="M62.43 7.06l24.64 14.23.36 14.63-37.84 21.83.06 14.46 49.63-29.05-.3-28.62L74.03.14l-11.6 6.92z"></path></svg></svg> <!----></g></g> <g data-d="text" transform="translate(0,52.326351165771484)"><g data-gra="path-name" fill-rule="" stroke="black" class="tp-name iconsvg-namesvg"><g transform="scale(1)"><g><path d="M19.69-21.43Q17.8-22.63 15.77-23.23 13.73-23.83 12.03-23.83L12.03-23.83Q9.67-23.83 8.26-22.92 6.85-22.01 6.85-20.43L6.85-20.43Q6.85-19 7.7-18.09 8.55-17.18 9.79-16.66 11.03-16.13 13.23-15.44L13.23-15.44Q15.98-14.59 17.68-13.81 19.38-13.04 20.58-11.51 21.78-9.98 21.78-7.47L21.78-7.47Q21.78-5.15 20.52-3.4 19.27-1.66 17-0.72 14.74 0.23 11.8 0.23L11.8 0.23Q8.82 0.23 6-0.93 3.17-2.09 1.12-4.02L1.12-4.02 2.79-7.23Q4.72-5.34 7.14-4.31 9.56-3.29 11.84-3.29L11.84-3.29Q14.55-3.29 16.11-4.35 17.68-5.42 17.68-7.23L17.68-7.23Q17.68-8.67 16.83-9.59 15.98-10.52 14.68-11.07 13.39-11.61 11.18-12.26L11.18-12.26Q8.47-13.08 6.77-13.85 5.07-14.62 3.89-16.13 2.71-17.64 2.71-20.12L2.71-20.12Q2.71-22.28 3.91-23.95 5.11-25.61 7.27-26.5 9.44-27.39 12.3-27.39L12.3-27.39Q14.74-27.39 17.08-26.68 19.42-25.96 21.24-24.76L21.24-24.76 19.69-21.43ZM34.84-11.07Q34.84-7.31 36.91-5.2 38.97-3.1 42.61-3.1L42.61-3.1Q46.21-3.1 48.26-5.2 50.31-7.31 50.31-11.07L50.31-11.07 50.31-27.08 54.03-27.08 54.03-11.07Q54.03-5.76 50.99-2.75 47.95 0.27 42.61 0.27L42.61 0.27Q37.23 0.27 34.18-2.75 31.12-5.76 31.12-11.07L31.12-11.07 31.12-27.08 34.84-27.08 34.84-11.07ZM63.36-23.72L63.4-27.08 85.18-27.08 85.18-24.34 67.85-3.37 85.38-3.37 85.34 0 62.9 0 62.9-2.75 80.23-23.72 63.36-23.72Z" transform="translate(-1.1200000047683716, 27.389999389648438)" stroke-width="12" stroke-linejoin="round" stroke="black"></path></g> <!----> <!----> <!----> <!----> <!----> <!----> <g data-gra="path-name-1" fill="#333" stroke="black" transform="translate(93.25999450683594,0)"><g transform="scale(1)"><path d="M7-11.07Q7-7.31 9.07-5.2 11.14-3.1 14.78-3.1L14.78-3.1Q18.38-3.1 20.43-5.2 22.48-7.31 22.48-11.07L22.48-11.07 22.48-27.08 26.19-27.08 26.19-11.07Q26.19-5.76 23.16-2.75 20.12 0.27 14.78 0.27L14.78 0.27Q9.4 0.27 6.35-2.75 3.29-5.76 3.29-11.07L3.29-11.07 3.29-27.08 7-27.08 7-11.07ZM37.35 0L37.35-27.08 41.76-27.08 51.66-8.05 61.49-27.08 65.94-27.08 65.94 0 62.46 0 62.42-21.63 52.79-2.86 50.5-2.86 40.79-21.63 40.79 0 37.35 0ZM77.68 0L77.68-27.08 96.48-27.08 96.48-23.72 81.39-23.72 81.39-15.36 94.9-15.36 94.9-11.99 81.39-11.99 81.39-3.37 96.95-3.37 96.95 0 77.68 0Z" transform="translate(-3.2899999618530273, 27.389999389648438)" stroke-width="12" stroke-linejoin="round" stroke="black"></path></g></g></g></g> <!----></g></g></g></mask><defs v-gra="od"></defs></svg>