<svg data-v-6805eed4="" version="1.0" xmlns="http://www.w3.org/2000/svg" xmlns:xlink="http://www.w3.org/1999/xlink" width="100%" height="100%" viewBox="0 0 340.000000 250.000000" preserveAspectRatio="xMidYMid meet" color-interpolation-filters="sRGB" style="margin: auto;"> <rect data-v-6805eed4="" x="0" y="0" width="100%" height="100%" fill="#ffffff" fill-opacity="1" class="background"></rect> <rect data-v-6805eed4="" x="0" y="0" width="100%" height="100%" fill="url(#watermark)" fill-opacity="1" class="watermarklayer"></rect> <g data-v-6805eed4="" fill="#000000" class="j-b-g-c iconbgsvg" transform="translate(47.5,2.4987716674804688)"><g data-d="container" transform="translate(0,0)"><g mask="url(#c55c1553-44ea-46b1-9ecc-a74780fc3719)"><rect fill="#000000" fill-opacity="0" stroke-width="2" x="0" y="0" width="245" height="245.00244999999995" class="image-rect"></rect> <svg filter="url(#colors2570417995)" x="0" y="0" width="245" height="245.00244999999995" filtersec="colorsf2311552516" class="image-svg-container primary" style="overflow: visible;"><svg fill="#000000" xmlns="http://www.w3.org/2000/svg" xmlns:xlink="http://www.w3.org/1999/xlink" version="1.0" x="0px" y="0px" viewBox="212.59895 212.59698 708.6601 708.664" enable-background="new 0 0 1133.858 1133.857" xml:space="preserve" style="overflow: visible;"><g transform="scale(1, 1) skewX(0)"><path display="none" d="M566.399,235.99c-181.76,0-329.627,147.867-329.627,329.627c0,181.76,147.867,329.627,329.627,329.627  c181.76,0.001,329.627-147.875,329.627-329.627C896.026,383.866,748.159,235.99,566.399,235.99z M566.398,812.827  c-136.322,0-247.219-110.893-247.219-247.218c0-136.321,110.898-247.217,247.219-247.217c136.324,0,247.221,110.897,247.221,247.217  C813.62,701.934,702.722,812.827,566.398,812.827z"></path><path display="none" fill="#000000" d="M611.148,273.649c-160.995,0-291.969,130.974-291.969,291.969  c0,160.995,130.974,291.969,291.969,291.969c160.995,0.001,291.968-130.981,291.968-291.969  C903.116,404.63,772.142,273.649,611.148,273.649z M611.147,849.072c-156.307,0-283.463-127.151-283.463-283.462  c0-156.306,127.156-283.461,283.463-283.461c156.31,0,283.466,127.155,283.466,283.461  C894.613,721.921,767.457,849.072,611.147,849.072z"></path><path display="none" fill="#000000" d="M567,228.89c-160.995,0-291.969,130.974-291.969,291.969  c0,160.995,130.974,291.969,291.969,291.969c160.995,0.001,291.968-130.981,291.968-291.969  C858.969,359.871,727.995,228.89,567,228.89z M567,804.312c-156.307,0-283.464-127.151-283.464-283.462  c0-156.306,127.156-283.461,283.464-283.461c156.31,0,283.466,127.155,283.466,283.461C850.465,677.161,723.309,804.312,567,804.312  z"></path><path display="none" fill="#000000" d="M567,318.892c-160.995,0-291.969,130.974-291.969,291.969  c0,160.995,130.974,291.969,291.969,291.969c160.995,0.001,291.968-130.981,291.968-291.969  C858.969,449.873,727.995,318.892,567,318.892z M567,894.314c-156.307,0-283.464-127.151-283.464-283.462  c0-156.306,127.156-283.461,283.464-283.461c156.31,0,283.466,127.155,283.466,283.461C850.465,767.163,723.309,894.314,567,894.314  z"></path><path display="none" fill="#000000" d="M612.565,273.543c-161.776,0-293.386,131.61-293.386,293.386  c0,161.776,131.61,293.386,293.386,293.386c161.776,0.001,293.386-131.617,293.386-293.386  C905.951,405.16,774.341,273.543,612.565,273.543z M612.564,851.759c-157.066,0-284.84-127.768-284.84-284.838  c0-157.065,127.773-284.837,284.84-284.837c157.069,0,284.842,127.772,284.842,284.837  C897.406,723.99,769.633,851.759,612.564,851.759z"></path><path display="none" fill="#000000" d="M273.513,612.594c0,161.776,131.61,293.386,293.386,293.386  c161.777,0,293.386-131.61,293.386-293.386c0.001-161.776-131.617-293.386-293.386-293.386  C405.13,319.208,273.513,450.818,273.513,612.594z M851.729,612.595c0,157.066-127.768,284.839-284.838,284.839  c-157.065,0-284.837-127.773-284.837-284.839c0-157.069,127.772-284.842,284.837-284.842  C723.961,327.753,851.729,455.526,851.729,612.595z"></path><path display="none" fill="#000000" d="M273.513,521.263c0,161.776,131.61,293.386,293.386,293.386  c161.777,0,293.386-131.61,293.386-293.386c0.001-161.776-131.617-293.386-293.386-293.386  C405.13,227.877,273.513,359.487,273.513,521.263z M851.729,521.264c0,157.066-127.768,284.839-284.838,284.839  c-157.065,0-284.837-127.773-284.837-284.839c0-157.069,127.772-284.842,284.837-284.842  C723.961,236.422,851.729,364.195,851.729,521.264z"></path><g><path d="M518.028,251.555c173.501,0,314.65,141.157,314.65,314.65h-0.009c0.001,0.238,0.009,0.475,0.009,0.714   c0,146.541-119.209,265.746-265.749,265.746c-82.103,0-155.619-37.426-204.404-96.109   C417.471,817.863,510.501,871.42,615.81,871.42c165.497,0,300.658-132.269,305.35-296.647c0.057-2.609,0.099-5.222,0.099-7.845   c0-195.373-158.949-354.331-354.33-354.331c-121.652,0-229.169,61.628-293,155.297   C331.671,296.956,419.641,251.555,518.028,251.555z"></path><path d="M615.811,880.581c-173.502,0-314.65-141.149-314.65-314.65h0.034c0.536-146.083,119.527-264.756,265.734-264.756   c85.352,0,161.419,40.45,210.073,103.176c-54.064-86.198-149.927-143.635-258.974-143.635   c-160.469,0-292.426,124.356-304.57,281.763c-0.554,8.082-0.859,16.231-0.859,24.451c0,195.382,158.949,354.331,354.331,354.331   c126.141,0.001,237.078-66.269,299.878-165.805C809.313,831.41,718.202,880.581,615.811,880.581z"></path></g><path display="none" fill="#000000" d="M896.06,566.008c0,156.705-127.48,284.184-284.189,284.184  c-156.706,0-284.186-127.479-284.186-284.184L319.159,566c0,161.405,131.308,292.713,292.713,292.713S904.585,727.398,904.585,566  L896.06,566.008z"></path></g></svg></svg> <defs><filter id="colors2570417995"><feColorMatrix type="matrix" values="0 0 0 0 0.6953125  0 0 0 0 0.12890625  0 0 0 0 0.3984375  0 0 0 1 0" class="icon-fecolormatrix"></feColorMatrix></filter> <filter id="colorsf2311552516"><feColorMatrix type="matrix" values="0 0 0 0 0.99609375  0 0 0 0 0.99609375  0 0 0 0 0.99609375  0 0 0 1 0" class="icon-fecolormatrix"></feColorMatrix></filter> <filter id="colorsb5521560868"><feColorMatrix type="matrix" values="0 0 0 0 0  0 0 0 0 0  0 0 0 0 0  0 0 0 1 0" class="icon-fecolormatrix"></feColorMatrix></filter></defs></g></g> <g data-d="icon-text" hollow-target="textRect" transform="translate(51.865699768066406,77.87069320678711)"><g data-d="icon" class="iconsvg-imagesvg" transform="translate(51.28429985046387,0)"><g><!----> <svg filter="url(#colors4158773254)" x="0" y="0" width="38.7" height="38.692648396804614" filtersec="colorsf5553032648" class="image-svg-svg primary" style="overflow: visible;"><svg xmlns="http://www.w3.org/2000/svg" xmlns:xlink="http://www.w3.org/1999/xlink" version="1.1" x="0px" y="0px" viewBox="1.0687999725341797 1.0750004053115845 63.86219787597656 63.85000228881836" enable-background="new 0 0 66 66" xml:space="preserve"><g><g><path d="M64.6312,56.6249c-0.3647,0.3841-1.0205,0.4096-1.41,0.02l-0.69-0.6699v7.95c0,0.55-0.45,1-1,1h-3.37c0.55,0,1-0.45,1-1    v-2.97c0-1.52-1.23-2.75-2.74-2.75c-1.52,0-2.75,1.23-2.75,2.75v2.97c0,0.55,0.45,1,1,1h-3.37c-0.55,0-1-0.45-1-1v-7.95    l-0.69,0.6699c-0.39,0.3801-1.03,0.3701-1.41-0.02c-0.39-0.3999-0.38-1.0299,0.02-1.4199l7.5-7.27c0.39-0.38,1-0.38,1.39,0    l7.5,7.27C65.0112,55.595,65.0212,56.225,64.6312,56.6249z"></path></g><g><path d="M2.0688,62.9894c-0.5522,0-1-0.4478-1-1c0-8.0112,6.5176-14.5288,14.5288-14.5288c0.5522,0,1,0.4478,1,1s-0.4478,1-1,1    c-6.9082,0-12.5288,5.6206-12.5288,12.5288C3.0688,62.5417,2.6211,62.9894,2.0688,62.9894z"></path></g><g><path d="M5.9341,62.9894c-0.5522,0-1-0.4478-1-1c0-5.8799,4.7837-10.6636,10.6636-10.6636c0.5522,0,1,0.4478,1,1s-0.4478,1-1,1    c-4.7773,0-8.6636,3.8862-8.6636,8.6636C6.9341,62.5417,6.4863,62.9894,5.9341,62.9894z"></path></g><g><path d="M9.7998,62.9894c-0.5522,0-1-0.4478-1-1c0-3.7485,3.0493-6.7983,6.7979-6.7983c0.5522,0,1,0.4478,1,1s-0.4478,1-1,1    c-2.6455,0-4.7979,2.1523-4.7979,4.7983C10.7998,62.5417,10.3521,62.9894,9.7998,62.9894z"></path></g><g><circle cx="15.598" cy="61.9894" r="2.0863"></circle></g><path d="M64.8011,10.055l-2.73-8.2899c-0.13-0.4102-0.52-0.6901-0.95-0.6901h-11.4c-0.43,0-0.81,0.2799-0.95,0.6901l-2.79,8.47   c-0.1,0.3-0.05,0.6299,0.14,0.8899s0.49,0.42,0.81,0.42h7.4927v2.568h-1.4595c-0.5522,0-1,0.4478-1,1s0.4478,1,1,1h4.9189   c0.5522,0,1-0.4478,1-1s-0.4478-1-1-1h-1.4595v-2.568h7.4873c0.01,0,0.02,0,0.02,0c0.56,0,1-0.45,1-1   C64.9312,10.3649,64.8912,10.195,64.8011,10.055z"></path><g><path d="M57.1611,20.1149v3.27c0,0.41-0.25,0.77-0.63,0.9301l-7.42,2.9501c-0.29-0.6101-0.62-1.2001-0.98-1.77l7.03-2.79v-2.5901    c0-0.5599,0.44-1,1-1C56.7112,19.1149,57.1611,19.555,57.1611,20.1149z"></path></g><g><path d="M57.1611,42.6149v3.4202c0,0.5499-0.45,1-1,1c-0.55,0-1-0.4501-1-1V43.295l-5.36-2.13c0.23-0.6299,0.43-1.27,0.58-1.9199    l6.15,2.4399C56.9111,41.835,57.1611,42.205,57.1611,42.6149z"></path></g><g><path d="M17.8912,25.425c-0.36,0.5701-0.69,1.16-0.98,1.76l-7.23-2.87c-0.38-0.16-0.63-0.52-0.63-0.9301v-3.27    c0-0.5599,0.44-1,1-1c0.55,0,1,0.4401,1,1v2.5901L17.8912,25.425z"></path></g><g><path d="M16.2112,41.2451l-5.17,2.0499v2.7401c0,0.5499-0.44,1-1,1c-0.55,0-1-0.4501-1-1v-3.4202    c0-0.4099,0.25-0.7799,0.63-0.9299l5.95-2.36C15.7811,39.9851,15.9711,40.6249,16.2112,41.2451z"></path></g><g><path d="M18.5254,16.5017H4.145c-0.5522,0-1-0.4478-1-1V9.8962c0-0.5522,0.4478-1,1-1s1,0.4478,1,1v4.6055h12.3804V9.8962    c0-0.5522,0.4478-1,1-1s1,0.4478,1,1v5.6055C19.5254,16.0539,19.0776,16.5017,18.5254,16.5017z"></path></g><path d="M15.3721,6.5397c-0.3906-0.3906-1.0234-0.3906-1.4141,0l-1.6226,1.6226V3.173c0-0.5522-0.4478-1-1-1s-1,0.4478-1,1v4.9893   L8.7129,6.5397c-0.3906-0.3906-1.0234-0.3906-1.4141,0s-0.3906,1.0234,0,1.4141l3.3293,3.3293   c0.1846,0.1849,0.4459,0.2932,0.7073,0.2932c0.2613,0,0.5226-0.1083,0.7073-0.2932l3.3293-3.3293   C15.7627,7.5632,15.7627,6.9304,15.3721,6.5397z"></path><g><g><path d="M39.5426,43.4981c-1.7519-0.3971-3.6441-0.6337-5.5504-0.6963v7.9852C36.2335,50.1435,38.3063,47.4282,39.5426,43.4981z"></path></g><g><path d="M40.6089,38.2429c-1.0677-0.3851-1.8172-1.281-2.1008-2.2153h-4.5159v4.7764c2.0778,0.0643,4.1412,0.3213,6.0519,0.7585     C40.2864,40.5048,40.4878,39.4068,40.6089,38.2429z"></path></g><g><path d="M25.1025,24.1227c0.033,0,0.0635,0.0088,0.0963,0.0098c0.6588-1.5986,1.4417-2.9487,2.3191-4.0262     c-2.6462,0.9735-4.9699,2.6166-6.7448,4.7428c0.4688,0.2775,0.9663,0.54,1.4972,0.7827     C22.8927,24.7078,23.9423,24.1227,25.1025,24.1227z"></path></g><g><path d="M26.2128,28.4055c1.4582-1.7705-1.9139-3.415-2.4804-1.2246c-0.365,1.4545,1.4818,2.4314,2.4787,1.2267     C26.2117,28.4068,26.2123,28.4062,26.2128,28.4055z"></path></g><g><path d="M45.2025,24.8478c-1.7732-2.1238-4.094-3.7654-6.7368-4.739c1.2947,1.5815,2.3738,3.7366,3.1293,6.3284     C42.9351,26.0024,44.155,25.4675,45.2025,24.8478z"></path></g><g><path d="M42.6028,38.3295c-0.1318,1.3112-0.3356,2.5692-0.6116,3.7592c1.5602,0.4844,2.9622,1.0902,4.1868,1.8124     c1.5911-2.3495,2.5072-5.0365,2.6814-7.8735h-3.8381C44.6848,37.1171,43.8372,38.019,42.6028,38.3295z"></path></g><g><path d="M23.7822,43.1569c0.5903,1.1963,1.8825,1.0856,2.449,0.3315c0.0082-0.011,0.0181-0.0203,0.026-0.0315     c1.0116-1.429-1.0233-3.0417-2.197-1.7542C23.5242,42.3039,23.7159,42.7665,23.7822,43.1569z"></path></g><g><path d="M33.9922,19.2629v8.4332c1.9843-0.0615,3.884-0.3047,5.6755-0.7264C38.442,22.7899,36.3112,19.9123,33.9922,19.2629z"></path></g><g><path d="M40.6084,31.8127c-0.1065-1.0168-0.2737-1.9753-0.4699-2.9001c-1.9433,0.4585-4.0012,0.7207-6.1463,0.7834v4.3315h4.5159     C38.8184,33.0047,39.5987,32.1762,40.6084,31.8127z"></path></g><g><path d="M27.1353,45.3869c1.2662,2.9619,3.0179,4.8467,4.8569,5.3801v-7.9636c-1.2032,0.0352-2.3819,0.1404-3.5111,0.3119     C28.2614,44.676,27.2979,45.1852,27.1353,45.3869z"></path></g><g><path d="M25.5024,39.2507c1.1155,0.1338,2.1393,0.8455,2.6606,1.8909c1.2328-0.1877,2.5184-0.302,3.8292-0.3378v-4.7762h-6.7444     C25.2825,37.1152,25.3556,38.1957,25.5024,39.2507z"></path></g><g><path d="M27.0991,24.7648c0.7495,0.5369,1.3569,1.514,1.4048,2.6294c1.1347,0.1697,2.301,0.274,3.4882,0.3113v-8.4343     C30.128,19.7938,28.3716,21.7443,27.0991,24.7648z"></path></g><g><path d="M25.4849,30.9333c-0.1367,1.0054-0.2051,2.0442-0.2382,3.0942h6.7455v-4.322c-1.3614-0.0403-2.6984-0.1641-3.9971-0.3679     C27.4174,30.2619,26.4592,30.8242,25.4849,30.9333z"></path></g><g><path d="M22.4392,44.78c-0.5,0.2222-0.9678,0.4602-1.4088,0.7102c1.7388,1.9847,3.959,3.528,6.4802,4.4569     c-0.8545-1.0492-1.6188-2.3575-2.2654-3.9005C24.0821,46.0947,23.0814,45.5742,22.4392,44.78z"></path></g><g><path d="M42.0574,33.6408c-0.0921-0.0188-0.1874-0.0288-0.285-0.0288c-0.7917,0.027-1.3691,0.6172-1.4034,1.3514     c-0.001,0.0226-0.0126,0.0415-0.0126,0.0643c0.0001,0.7656,0.6001,1.3879,1.3657,1.4163     C43.5065,36.4428,43.7065,33.9794,42.0574,33.6408z"></path></g><g><path d="M23.5574,39.6042c-0.1663-1.1729-0.2661-2.3671-0.3024-3.5767h-6.1273c0.1814,2.8983,1.1241,5.593,2.6568,7.8679     c0.5942-0.3513,1.2405-0.6769,1.9271-0.9784C21.5516,41.725,22.2446,40.2722,23.5574,39.6042z"></path></g><g><path d="M23.5424,30.5549c-1.2045-0.6235-1.8357-1.7434-1.842-2.9928c-0.7505-0.3302-1.4586-0.6906-2.1083-1.085     c-1.4141,2.2076-2.2908,4.7827-2.4642,7.5504h6.1262C23.2892,32.8458,23.3842,31.686,23.5424,30.5549z"></path></g><g><path d="M42.6036,31.7263c1.2414,0.3127,2.0822,1.2158,2.4176,2.3013h3.8275c-0.1736-2.7714-1.0523-5.3499-2.4697-7.5593     c-1.245,0.7561-2.6992,1.4015-4.2959,1.9102C42.3121,29.4372,42.4854,30.5582,42.6036,31.7263z"></path></g><g><path d="M38.4317,49.968c2.4969-0.9131,4.7377-2.4589,6.506-4.4805c-1.0156-0.571-2.1879-1.0632-3.4631-1.4661     C40.7224,46.4446,39.6742,48.4648,38.4317,49.968z"></path></g></g></g></svg></svg> <defs><filter id="colors4158773254"><feColorMatrix type="matrix" values="0 0 0 0 0  0 0 0 0 0  0 0 0 0 0  0 0 0 1 0" class="icon-fecolormatrix"></feColorMatrix></filter> <filter id="colorsf5553032648"><feColorMatrix type="matrix" values="0 0 0 0 0.99609375  0 0 0 0 0.99609375  0 0 0 0 0.99609375  0 0 0 1 0" class="icon-fecolormatrix"></feColorMatrix></filter> <filter id="colorsb8061996895"><feColorMatrix type="matrix" values="0 0 0 0 0  0 0 0 0 0  0 0 0 0 0  0 0 0 1 0" class="icon-fecolormatrix"></feColorMatrix></filter></defs></g></g> <g data-d="text" transform="translate(0,45.69261169433594)"><g data-gra="path-name" fill-rule="" stroke="#000000" class="tp-name iconsvg-namesvg" transform="translate(0,0)"><g transform="scale(3.1400000000000015)"><g><path d="M0.51 0L0.45-1.25 1.34-1.49 1.34-6.14Q1.34-6.46 1.29-6.56 1.25-6.67 1.04-6.75L1.04-6.75 0.4-7.11 0.48-8.1Q1.4-8.24 2.24-8.31 3.07-8.38 4.02-8.38L4.02-8.38Q5.34-8.38 6.14-8.1 6.94-7.82 7.31-7.22 7.68-6.62 7.68-5.63L7.68-5.63Q7.68-4.35 6.76-3.62 5.84-2.88 4.24-2.88L4.24-2.88 3.57-2.91 3.57-1.98Q3.57-1.69 3.61-1.6 3.65-1.51 3.82-1.43L3.82-1.43 4.57-0.99 4.52 0 0.51 0ZM4.35-4.24Q5.01-4.24 5.31-4.37L5.31-4.37Q5.45-4.97 5.45-5.63L5.45-5.63Q5.45-6.35 5.17-6.66 4.9-6.96 4.29-6.96L4.29-6.96Q4.08-6.96 3.57-6.91L3.57-6.91 3.57-4.31Q3.9-4.24 4.35-4.24L4.35-4.24ZM14.25 0L14.19-1.2 15.25-1.49 15.25-6.78 14.22-6.69 13.32-5.61 12.43-5.68Q12.43-6.69 12.53-8.23L12.53-8.23 20.17-8.23Q20.27-6.69 20.27-5.68L20.27-5.68 19.39-5.61 18.47-6.69 17.47-6.78 17.47-1.98Q17.47-1.69 17.51-1.6 17.55-1.51 17.72-1.43L17.72-1.43 18.47-0.98 18.42 0 14.25 0ZM25.01 0L24.95-1.28 25.72-1.49 25.72-6.17Q25.72-6.49 25.68-6.59 25.64-6.69 25.44-6.78L25.44-6.78 24.93-7.07 24.97-8.23 28.78-8.23 28.84-6.99 27.93-6.74 27.93-4.45 30.07-6.75Q30.12-6.8 30.12-6.89L30.12-6.89Q30.12-6.95 30.08-7L30.08-7 29.73-7.43 29.86-8.23 32.7-8.23 32.84-7.4 30.05-4.41 33.04-0.55 33.04 0 30.71 0 27.93-3.68 27.93-1.98Q27.93-1.71 27.98-1.61 28.02-1.51 28.2-1.42L28.2-1.42 28.85-1.05 28.8 0 25.01 0ZM39.37 0L39.31-1.2 40.37-1.49 40.37-6.78 39.35-6.69 38.44-5.61 37.55-5.68Q37.55-6.69 37.65-8.23L37.65-8.23 45.3-8.23Q45.39-6.69 45.39-5.68L45.39-5.68 44.51-5.61 43.6-6.69 42.6-6.78 42.6-1.98Q42.6-1.69 42.63-1.6 42.67-1.51 42.84-1.43L42.84-1.43 43.6-0.98 43.55 0 39.37 0Z" transform="translate(-0.4000000059604645, 8.380000114440918)" stroke-width="0.5" stroke-linejoin="round"></path></g> <!----> <!----> <!----> <!----> <!----> <!----> <!----></g></g> <g data-gra="path-slogan" fill-rule="" class="tp-slogan iconsvg-slogansvg" fill="#000000" transform="translate(0.6958999633789062,32.563201904296875)"><rect width="0"></rect> <rect x="142.87680053710938" width="0"></rect> <g transform="translate(0,0)"><g transform="scale(1.3800000000000003)"><path d="M1.08 0L1.08-7.87L2.11-7.87L4.96-2.93L5.81-1.30L5.86-1.30Q5.82-1.90 5.78-2.54Q5.74-3.18 5.74-3.80L5.74-3.80L5.74-7.87L6.68-7.87L6.68 0L5.65 0L2.80-4.96L1.94-6.58L1.90-6.58Q1.94-5.98 1.99-5.36Q2.03-4.74 2.03-4.12L2.03-4.12L2.03 0L1.08 0ZM8.84 0L8.84-7.87L13.38-7.87L13.38-7.03L9.84-7.03L9.84-4.56L12.83-4.56L12.83-3.71L9.84-3.71L9.84-0.85L13.50-0.85L13.50 0L8.84 0ZM16.80 0L16.80-7.03L14.42-7.03L14.42-7.87L20.18-7.87L20.18-7.03L17.81-7.03L17.81 0L16.80 0ZM22.46 0L20.80-7.87L21.83-7.87L22.66-3.59Q22.76-2.94 22.88-2.32Q23.00-1.69 23.11-1.04L23.11-1.04L23.16-1.04Q23.29-1.69 23.44-2.32Q23.58-2.95 23.71-3.59L23.71-3.59L24.80-7.87L25.72-7.87L26.81-3.59Q26.95-2.96 27.10-2.33Q27.24-1.69 27.38-1.04L27.38-1.04L27.43-1.04Q27.54-1.69 27.65-2.32Q27.76-2.95 27.88-3.59L27.88-3.59L28.70-7.87L29.66-7.87L28.03 0L26.83 0L25.64-4.74Q25.54-5.20 25.45-5.63Q25.36-6.07 25.26-6.53L25.26-6.53L25.21-6.53Q25.12-6.07 25.01-5.63Q24.91-5.20 24.82-4.74L24.82-4.74L23.65 0L22.46 0ZM33.86 0.14L33.86 0.14Q33.12 0.14 32.50-0.14Q31.88-0.43 31.44-0.97Q31.00-1.50 30.75-2.26Q30.50-3.02 30.50-3.97L30.50-3.97Q30.50-4.92 30.75-5.67Q31.00-6.42 31.44-6.94Q31.88-7.46 32.50-7.74Q33.12-8.02 33.86-8.02L33.86-8.02Q34.61-8.02 35.23-7.73Q35.84-7.45 36.29-6.93Q36.74-6.41 36.99-5.66Q37.24-4.91 37.24-3.97L37.24-3.97Q37.24-3.02 36.99-2.26Q36.74-1.50 36.29-0.97Q35.84-0.43 35.23-0.14Q34.61 0.14 33.86 0.14ZM33.86-0.73L33.86-0.73Q34.39-0.73 34.82-0.96Q35.24-1.19 35.55-1.61Q35.86-2.04 36.02-2.63Q36.19-3.23 36.19-3.97L36.19-3.97Q36.19-4.70 36.02-5.29Q35.86-5.88 35.55-6.29Q35.24-6.70 34.82-6.92Q34.39-7.14 33.86-7.14L33.86-7.14Q33.34-7.14 32.91-6.92Q32.48-6.70 32.18-6.29Q31.87-5.88 31.70-5.29Q31.54-4.70 31.54-3.97L31.54-3.97Q31.54-3.23 31.70-2.63Q31.87-2.04 32.18-1.61Q32.48-1.19 32.91-0.96Q33.34-0.73 33.86-0.73ZM39.92-7.07L39.92-4.14L41.24-4.14Q42.17-4.14 42.66-4.52Q43.15-4.90 43.15-5.66L43.15-5.66Q43.15-6.44 42.66-6.76Q42.17-7.07 41.24-7.07L41.24-7.07L39.92-7.07ZM44.38 0L43.25 0L41.35-3.32L39.92-3.32L39.92 0L38.93 0L38.93-7.87L41.39-7.87Q41.99-7.87 42.50-7.76Q43.01-7.64 43.37-7.38Q43.74-7.12 43.94-6.70Q44.15-6.28 44.15-5.66L44.15-5.66Q44.15-4.74 43.67-4.19Q43.19-3.64 42.38-3.43L42.38-3.43L44.38 0ZM45.90 0L45.90-7.87L46.90-7.87L46.90-3.92L46.93-3.92L50.21-7.87L51.34-7.87L48.88-4.87L51.72 0L50.60 0L48.25-4.09L46.90-2.50L46.90 0L45.90 0ZM55.27 0L55.27-7.87L56.45-7.87L57.97-3.65L58.55-2.04L58.60-2.04L59.15-3.65L60.66-7.87L61.84-7.87L61.84 0L60.89 0L60.89-4.33Q60.89-4.86 60.93-5.50Q60.97-6.13 61.02-6.66L61.02-6.66L60.97-6.66L60.34-4.91L58.82-0.79L58.26-0.79L56.74-4.91L56.11-6.66L56.06-6.66Q56.10-6.13 56.15-5.50Q56.20-4.86 56.20-4.33L56.20-4.33L56.20 0L55.27 0ZM66.90 0.14L66.90 0.14Q66.16 0.14 65.54-0.14Q64.92-0.43 64.48-0.97Q64.03-1.50 63.79-2.26Q63.54-3.02 63.54-3.97L63.54-3.97Q63.54-4.92 63.79-5.67Q64.03-6.42 64.48-6.94Q64.92-7.46 65.54-7.74Q66.16-8.02 66.90-8.02L66.90-8.02Q67.64-8.02 68.26-7.73Q68.88-7.45 69.33-6.93Q69.78-6.41 70.03-5.66Q70.27-4.91 70.27-3.97L70.27-3.97Q70.27-3.02 70.03-2.26Q69.78-1.50 69.33-0.97Q68.88-0.43 68.26-0.14Q67.64 0.14 66.90 0.14ZM66.90-0.73L66.90-0.73Q67.43-0.73 67.85-0.96Q68.28-1.19 68.59-1.61Q68.89-2.04 69.06-2.63Q69.23-3.23 69.23-3.97L69.23-3.97Q69.23-4.70 69.06-5.29Q68.89-5.88 68.59-6.29Q68.28-6.70 67.85-6.92Q67.43-7.14 66.90-7.14L66.90-7.14Q66.37-7.14 65.95-6.92Q65.52-6.70 65.21-6.29Q64.91-5.88 64.74-5.29Q64.57-4.70 64.57-3.97L64.57-3.97Q64.57-3.23 64.74-2.63Q64.91-2.04 65.21-1.61Q65.52-1.19 65.95-0.96Q66.37-0.73 66.90-0.73ZM71.96 0L71.96-7.87L73.00-7.87L75.84-2.93L76.69-1.30L76.74-1.30Q76.70-1.90 76.66-2.54Q76.62-3.18 76.62-3.80L76.62-3.80L76.62-7.87L77.57-7.87L77.57 0L76.54 0L73.68-4.96L72.83-6.58L72.78-6.58Q72.83-5.98 72.87-5.36Q72.91-4.74 72.91-4.12L72.91-4.12L72.91 0L71.96 0ZM79.73 0L79.73-7.87L80.72-7.87L80.72 0L79.73 0ZM84.52 0L84.52-7.03L82.14-7.03L82.14-7.87L87.90-7.87L87.90-7.03L85.52-7.03L85.52 0L84.52 0ZM91.93 0.14L91.93 0.14Q91.19 0.14 90.57-0.14Q89.95-0.43 89.51-0.97Q89.06-1.50 88.82-2.26Q88.57-3.02 88.57-3.97L88.57-3.97Q88.57-4.92 88.82-5.67Q89.06-6.42 89.51-6.94Q89.95-7.46 90.57-7.74Q91.19-8.02 91.93-8.02L91.93-8.02Q92.68-8.02 93.29-7.73Q93.91-7.45 94.36-6.93Q94.81-6.41 95.06-5.66Q95.30-4.91 95.30-3.97L95.30-3.97Q95.30-3.02 95.06-2.26Q94.81-1.50 94.36-0.97Q93.91-0.43 93.29-0.14Q92.68 0.14 91.93 0.14ZM91.93-0.73L91.93-0.73Q92.46-0.73 92.89-0.96Q93.31-1.19 93.62-1.61Q93.92-2.04 94.09-2.63Q94.26-3.23 94.26-3.97L94.26-3.97Q94.26-4.70 94.09-5.29Q93.92-5.88 93.62-6.29Q93.31-6.70 92.89-6.92Q92.46-7.14 91.93-7.14L91.93-7.14Q91.40-7.14 90.98-6.92Q90.55-6.70 90.25-6.29Q89.94-5.88 89.77-5.29Q89.60-4.70 89.60-3.97L89.60-3.97Q89.60-3.23 89.77-2.63Q89.94-2.04 90.25-1.61Q90.55-1.19 90.98-0.96Q91.40-0.73 91.93-0.73ZM97.99-7.07L97.99-4.14L99.31-4.14Q100.24-4.14 100.73-4.52Q101.22-4.90 101.22-5.66L101.22-5.66Q101.22-6.44 100.73-6.76Q100.24-7.07 99.31-7.07L99.31-7.07L97.99-7.07ZM102.44 0L101.32 0L99.42-3.32L97.99-3.32L97.99 0L97.00 0L97.00-7.87L99.46-7.87Q100.06-7.87 100.57-7.76Q101.08-7.64 101.44-7.38Q101.81-7.12 102.01-6.70Q102.22-6.28 102.22-5.66L102.22-5.66Q102.22-4.74 101.74-4.19Q101.26-3.64 100.45-3.43L100.45-3.43L102.44 0Z" transform="translate(-1.08, 8.016)"></path></g></g></g></g></g></g><defs><filter id="699408a0-d6b6-4546-aed9-d28f70e9f3c7">
          <feColorMatrix type="matrix" values="0 0 0 0 0  0 0 0 0 0  0 0 0 0 0  0 0 0 1 0"></feColorMatrix>
          </filter><filter id="ecb3798d-6aaf-483d-b35e-2ca39d385429">
          <feColorMatrix type="matrix" values="0 0 0 0 0.99609375  0 0 0 0 0.99609375  0 0 0 0 0.99609375  0 0 0 1 0"></feColorMatrix>
          </filter></defs><mask id="c55c1553-44ea-46b1-9ecc-a74780fc3719"><g data-v-6805eed4="" fill="#000000" class="j-b-g-c iconbgsvg"><g data-d="container"><g><rect fill="#000000" fill-opacity="0" stroke-width="2" x="0" y="0" width="245" height="245.00244999999995" class="image-rect" stroke="#000"></rect> <svg filter="url(#ecb3798d-6aaf-483d-b35e-2ca39d385429)" x="0" y="0" width="245" height="245.00244999999995" filtersec="colorsf2311552516" class="image-svg-container primary" style="overflow: visible;"><svg fill="#000000" xmlns="http://www.w3.org/2000/svg" xmlns:xlink="http://www.w3.org/1999/xlink" version="1.0" x="0px" y="0px" viewBox="212.59895 212.59698 708.6601 708.664" enable-background="new 0 0 1133.858 1133.857" xml:space="preserve" style="overflow: visible;"><g transform="scale(1, 1) skewX(0)"><path display="none" d="M566.399,235.99c-181.76,0-329.627,147.867-329.627,329.627c0,181.76,147.867,329.627,329.627,329.627  c181.76,0.001,329.627-147.875,329.627-329.627C896.026,383.866,748.159,235.99,566.399,235.99z M566.398,812.827  c-136.322,0-247.219-110.893-247.219-247.218c0-136.321,110.898-247.217,247.219-247.217c136.324,0,247.221,110.897,247.221,247.217  C813.62,701.934,702.722,812.827,566.398,812.827z"></path><path display="none" fill="#000000" d="M611.148,273.649c-160.995,0-291.969,130.974-291.969,291.969  c0,160.995,130.974,291.969,291.969,291.969c160.995,0.001,291.968-130.981,291.968-291.969  C903.116,404.63,772.142,273.649,611.148,273.649z M611.147,849.072c-156.307,0-283.463-127.151-283.463-283.462  c0-156.306,127.156-283.461,283.463-283.461c156.31,0,283.466,127.155,283.466,283.461  C894.613,721.921,767.457,849.072,611.147,849.072z"></path><path display="none" fill="#000000" d="M567,228.89c-160.995,0-291.969,130.974-291.969,291.969  c0,160.995,130.974,291.969,291.969,291.969c160.995,0.001,291.968-130.981,291.968-291.969  C858.969,359.871,727.995,228.89,567,228.89z M567,804.312c-156.307,0-283.464-127.151-283.464-283.462  c0-156.306,127.156-283.461,283.464-283.461c156.31,0,283.466,127.155,283.466,283.461C850.465,677.161,723.309,804.312,567,804.312  z"></path><path display="none" fill="#000000" d="M567,318.892c-160.995,0-291.969,130.974-291.969,291.969  c0,160.995,130.974,291.969,291.969,291.969c160.995,0.001,291.968-130.981,291.968-291.969  C858.969,449.873,727.995,318.892,567,318.892z M567,894.314c-156.307,0-283.464-127.151-283.464-283.462  c0-156.306,127.156-283.461,283.464-283.461c156.31,0,283.466,127.155,283.466,283.461C850.465,767.163,723.309,894.314,567,894.314  z"></path><path display="none" fill="#000000" d="M612.565,273.543c-161.776,0-293.386,131.61-293.386,293.386  c0,161.776,131.61,293.386,293.386,293.386c161.776,0.001,293.386-131.617,293.386-293.386  C905.951,405.16,774.341,273.543,612.565,273.543z M612.564,851.759c-157.066,0-284.84-127.768-284.84-284.838  c0-157.065,127.773-284.837,284.84-284.837c157.069,0,284.842,127.772,284.842,284.837  C897.406,723.99,769.633,851.759,612.564,851.759z"></path><path display="none" fill="#000000" d="M273.513,612.594c0,161.776,131.61,293.386,293.386,293.386  c161.777,0,293.386-131.61,293.386-293.386c0.001-161.776-131.617-293.386-293.386-293.386  C405.13,319.208,273.513,450.818,273.513,612.594z M851.729,612.595c0,157.066-127.768,284.839-284.838,284.839  c-157.065,0-284.837-127.773-284.837-284.839c0-157.069,127.772-284.842,284.837-284.842  C723.961,327.753,851.729,455.526,851.729,612.595z"></path><path display="none" fill="#000000" d="M273.513,521.263c0,161.776,131.61,293.386,293.386,293.386  c161.777,0,293.386-131.61,293.386-293.386c0.001-161.776-131.617-293.386-293.386-293.386  C405.13,227.877,273.513,359.487,273.513,521.263z M851.729,521.264c0,157.066-127.768,284.839-284.838,284.839  c-157.065,0-284.837-127.773-284.837-284.839c0-157.069,127.772-284.842,284.837-284.842  C723.961,236.422,851.729,364.195,851.729,521.264z"></path><g><path d="M518.028,251.555c173.501,0,314.65,141.157,314.65,314.65h-0.009c0.001,0.238,0.009,0.475,0.009,0.714   c0,146.541-119.209,265.746-265.749,265.746c-82.103,0-155.619-37.426-204.404-96.109   C417.471,817.863,510.501,871.42,615.81,871.42c165.497,0,300.658-132.269,305.35-296.647c0.057-2.609,0.099-5.222,0.099-7.845   c0-195.373-158.949-354.331-354.33-354.331c-121.652,0-229.169,61.628-293,155.297   C331.671,296.956,419.641,251.555,518.028,251.555z"></path><path d="M615.811,880.581c-173.502,0-314.65-141.149-314.65-314.65h0.034c0.536-146.083,119.527-264.756,265.734-264.756   c85.352,0,161.419,40.45,210.073,103.176c-54.064-86.198-149.927-143.635-258.974-143.635   c-160.469,0-292.426,124.356-304.57,281.763c-0.554,8.082-0.859,16.231-0.859,24.451c0,195.382,158.949,354.331,354.331,354.331   c126.141,0.001,237.078-66.269,299.878-165.805C809.313,831.41,718.202,880.581,615.811,880.581z"></path></g><path display="none" fill="#000000" d="M896.06,566.008c0,156.705-127.48,284.184-284.189,284.184  c-156.706,0-284.186-127.479-284.186-284.184L319.159,566c0,161.405,131.308,292.713,292.713,292.713S904.585,727.398,904.585,566  L896.06,566.008z"></path></g></svg></svg> <defs><filter id="colors2570417995"><feColorMatrix type="matrix" values="0 0 0 0 0.6953125  0 0 0 0 0.12890625  0 0 0 0 0.3984375  0 0 0 1 0" class="icon-fecolormatrix"></feColorMatrix></filter> <filter id="colorsf2311552516"><feColorMatrix type="matrix" values="0 0 0 0 0.99609375  0 0 0 0 0.99609375  0 0 0 0 0.99609375  0 0 0 1 0" class="icon-fecolormatrix"></feColorMatrix></filter> <filter id="colorsb5521560868"><feColorMatrix type="matrix" values="0 0 0 0 0  0 0 0 0 0  0 0 0 0 0  0 0 0 1 0" class="icon-fecolormatrix"></feColorMatrix></filter></defs></g></g> <g data-d="icon-text" hollow-target="textRect" transform="translate(51.865699768066406, 77.87069320678711)" stroke="black" stroke-width="6" stroke-linejoin="round"><g data-d="icon" class="iconsvg-imagesvg" transform="translate(51.28429985046387,0)"><g><!----> <svg filter="url(#colors4158773254)" x="0" y="0" width="38.7" height="38.692648396804614" filtersec="colorsf5553032648" class="image-svg-svg primary" style="overflow: visible;"><svg xmlns="http://www.w3.org/2000/svg" xmlns:xlink="http://www.w3.org/1999/xlink" version="1.1" x="0px" y="0px" viewBox="1.0687999725341797 1.0750004053115845 63.86219787597656 63.85000228881836" enable-background="new 0 0 66 66" xml:space="preserve" style="overflow: visible;"><g><g><path d="M64.6312,56.6249c-0.3647,0.3841-1.0205,0.4096-1.41,0.02l-0.69-0.6699v7.95c0,0.55-0.45,1-1,1h-3.37c0.55,0,1-0.45,1-1    v-2.97c0-1.52-1.23-2.75-2.74-2.75c-1.52,0-2.75,1.23-2.75,2.75v2.97c0,0.55,0.45,1,1,1h-3.37c-0.55,0-1-0.45-1-1v-7.95    l-0.69,0.6699c-0.39,0.3801-1.03,0.3701-1.41-0.02c-0.39-0.3999-0.38-1.0299,0.02-1.4199l7.5-7.27c0.39-0.38,1-0.38,1.39,0    l7.5,7.27C65.0112,55.595,65.0212,56.225,64.6312,56.6249z"></path></g><g><path d="M2.0688,62.9894c-0.5522,0-1-0.4478-1-1c0-8.0112,6.5176-14.5288,14.5288-14.5288c0.5522,0,1,0.4478,1,1s-0.4478,1-1,1    c-6.9082,0-12.5288,5.6206-12.5288,12.5288C3.0688,62.5417,2.6211,62.9894,2.0688,62.9894z"></path></g><g><path d="M5.9341,62.9894c-0.5522,0-1-0.4478-1-1c0-5.8799,4.7837-10.6636,10.6636-10.6636c0.5522,0,1,0.4478,1,1s-0.4478,1-1,1    c-4.7773,0-8.6636,3.8862-8.6636,8.6636C6.9341,62.5417,6.4863,62.9894,5.9341,62.9894z"></path></g><g><path d="M9.7998,62.9894c-0.5522,0-1-0.4478-1-1c0-3.7485,3.0493-6.7983,6.7979-6.7983c0.5522,0,1,0.4478,1,1s-0.4478,1-1,1    c-2.6455,0-4.7979,2.1523-4.7979,4.7983C10.7998,62.5417,10.3521,62.9894,9.7998,62.9894z"></path></g><g><circle cx="15.598" cy="61.9894" r="2.0863"></circle></g><path d="M64.8011,10.055l-2.73-8.2899c-0.13-0.4102-0.52-0.6901-0.95-0.6901h-11.4c-0.43,0-0.81,0.2799-0.95,0.6901l-2.79,8.47   c-0.1,0.3-0.05,0.6299,0.14,0.8899s0.49,0.42,0.81,0.42h7.4927v2.568h-1.4595c-0.5522,0-1,0.4478-1,1s0.4478,1,1,1h4.9189   c0.5522,0,1-0.4478,1-1s-0.4478-1-1-1h-1.4595v-2.568h7.4873c0.01,0,0.02,0,0.02,0c0.56,0,1-0.45,1-1   C64.9312,10.3649,64.8912,10.195,64.8011,10.055z"></path><g><path d="M57.1611,20.1149v3.27c0,0.41-0.25,0.77-0.63,0.9301l-7.42,2.9501c-0.29-0.6101-0.62-1.2001-0.98-1.77l7.03-2.79v-2.5901    c0-0.5599,0.44-1,1-1C56.7112,19.1149,57.1611,19.555,57.1611,20.1149z"></path></g><g><path d="M57.1611,42.6149v3.4202c0,0.5499-0.45,1-1,1c-0.55,0-1-0.4501-1-1V43.295l-5.36-2.13c0.23-0.6299,0.43-1.27,0.58-1.9199    l6.15,2.4399C56.9111,41.835,57.1611,42.205,57.1611,42.6149z"></path></g><g><path d="M17.8912,25.425c-0.36,0.5701-0.69,1.16-0.98,1.76l-7.23-2.87c-0.38-0.16-0.63-0.52-0.63-0.9301v-3.27    c0-0.5599,0.44-1,1-1c0.55,0,1,0.4401,1,1v2.5901L17.8912,25.425z"></path></g><g><path d="M16.2112,41.2451l-5.17,2.0499v2.7401c0,0.5499-0.44,1-1,1c-0.55,0-1-0.4501-1-1v-3.4202    c0-0.4099,0.25-0.7799,0.63-0.9299l5.95-2.36C15.7811,39.9851,15.9711,40.6249,16.2112,41.2451z"></path></g><g><path d="M18.5254,16.5017H4.145c-0.5522,0-1-0.4478-1-1V9.8962c0-0.5522,0.4478-1,1-1s1,0.4478,1,1v4.6055h12.3804V9.8962    c0-0.5522,0.4478-1,1-1s1,0.4478,1,1v5.6055C19.5254,16.0539,19.0776,16.5017,18.5254,16.5017z"></path></g><path d="M15.3721,6.5397c-0.3906-0.3906-1.0234-0.3906-1.4141,0l-1.6226,1.6226V3.173c0-0.5522-0.4478-1-1-1s-1,0.4478-1,1v4.9893   L8.7129,6.5397c-0.3906-0.3906-1.0234-0.3906-1.4141,0s-0.3906,1.0234,0,1.4141l3.3293,3.3293   c0.1846,0.1849,0.4459,0.2932,0.7073,0.2932c0.2613,0,0.5226-0.1083,0.7073-0.2932l3.3293-3.3293   C15.7627,7.5632,15.7627,6.9304,15.3721,6.5397z"></path><g><g><path d="M39.5426,43.4981c-1.7519-0.3971-3.6441-0.6337-5.5504-0.6963v7.9852C36.2335,50.1435,38.3063,47.4282,39.5426,43.4981z"></path></g><g><path d="M40.6089,38.2429c-1.0677-0.3851-1.8172-1.281-2.1008-2.2153h-4.5159v4.7764c2.0778,0.0643,4.1412,0.3213,6.0519,0.7585     C40.2864,40.5048,40.4878,39.4068,40.6089,38.2429z"></path></g><g><path d="M25.1025,24.1227c0.033,0,0.0635,0.0088,0.0963,0.0098c0.6588-1.5986,1.4417-2.9487,2.3191-4.0262     c-2.6462,0.9735-4.9699,2.6166-6.7448,4.7428c0.4688,0.2775,0.9663,0.54,1.4972,0.7827     C22.8927,24.7078,23.9423,24.1227,25.1025,24.1227z"></path></g><g><path d="M26.2128,28.4055c1.4582-1.7705-1.9139-3.415-2.4804-1.2246c-0.365,1.4545,1.4818,2.4314,2.4787,1.2267     C26.2117,28.4068,26.2123,28.4062,26.2128,28.4055z"></path></g><g><path d="M45.2025,24.8478c-1.7732-2.1238-4.094-3.7654-6.7368-4.739c1.2947,1.5815,2.3738,3.7366,3.1293,6.3284     C42.9351,26.0024,44.155,25.4675,45.2025,24.8478z"></path></g><g><path d="M42.6028,38.3295c-0.1318,1.3112-0.3356,2.5692-0.6116,3.7592c1.5602,0.4844,2.9622,1.0902,4.1868,1.8124     c1.5911-2.3495,2.5072-5.0365,2.6814-7.8735h-3.8381C44.6848,37.1171,43.8372,38.019,42.6028,38.3295z"></path></g><g><path d="M23.7822,43.1569c0.5903,1.1963,1.8825,1.0856,2.449,0.3315c0.0082-0.011,0.0181-0.0203,0.026-0.0315     c1.0116-1.429-1.0233-3.0417-2.197-1.7542C23.5242,42.3039,23.7159,42.7665,23.7822,43.1569z"></path></g><g><path d="M33.9922,19.2629v8.4332c1.9843-0.0615,3.884-0.3047,5.6755-0.7264C38.442,22.7899,36.3112,19.9123,33.9922,19.2629z"></path></g><g><path d="M40.6084,31.8127c-0.1065-1.0168-0.2737-1.9753-0.4699-2.9001c-1.9433,0.4585-4.0012,0.7207-6.1463,0.7834v4.3315h4.5159     C38.8184,33.0047,39.5987,32.1762,40.6084,31.8127z"></path></g><g><path d="M27.1353,45.3869c1.2662,2.9619,3.0179,4.8467,4.8569,5.3801v-7.9636c-1.2032,0.0352-2.3819,0.1404-3.5111,0.3119     C28.2614,44.676,27.2979,45.1852,27.1353,45.3869z"></path></g><g><path d="M25.5024,39.2507c1.1155,0.1338,2.1393,0.8455,2.6606,1.8909c1.2328-0.1877,2.5184-0.302,3.8292-0.3378v-4.7762h-6.7444     C25.2825,37.1152,25.3556,38.1957,25.5024,39.2507z"></path></g><g><path d="M27.0991,24.7648c0.7495,0.5369,1.3569,1.514,1.4048,2.6294c1.1347,0.1697,2.301,0.274,3.4882,0.3113v-8.4343     C30.128,19.7938,28.3716,21.7443,27.0991,24.7648z"></path></g><g><path d="M25.4849,30.9333c-0.1367,1.0054-0.2051,2.0442-0.2382,3.0942h6.7455v-4.322c-1.3614-0.0403-2.6984-0.1641-3.9971-0.3679     C27.4174,30.2619,26.4592,30.8242,25.4849,30.9333z"></path></g><g><path d="M22.4392,44.78c-0.5,0.2222-0.9678,0.4602-1.4088,0.7102c1.7388,1.9847,3.959,3.528,6.4802,4.4569     c-0.8545-1.0492-1.6188-2.3575-2.2654-3.9005C24.0821,46.0947,23.0814,45.5742,22.4392,44.78z"></path></g><g><path d="M42.0574,33.6408c-0.0921-0.0188-0.1874-0.0288-0.285-0.0288c-0.7917,0.027-1.3691,0.6172-1.4034,1.3514     c-0.001,0.0226-0.0126,0.0415-0.0126,0.0643c0.0001,0.7656,0.6001,1.3879,1.3657,1.4163     C43.5065,36.4428,43.7065,33.9794,42.0574,33.6408z"></path></g><g><path d="M23.5574,39.6042c-0.1663-1.1729-0.2661-2.3671-0.3024-3.5767h-6.1273c0.1814,2.8983,1.1241,5.593,2.6568,7.8679     c0.5942-0.3513,1.2405-0.6769,1.9271-0.9784C21.5516,41.725,22.2446,40.2722,23.5574,39.6042z"></path></g><g><path d="M23.5424,30.5549c-1.2045-0.6235-1.8357-1.7434-1.842-2.9928c-0.7505-0.3302-1.4586-0.6906-2.1083-1.085     c-1.4141,2.2076-2.2908,4.7827-2.4642,7.5504h6.1262C23.2892,32.8458,23.3842,31.686,23.5424,30.5549z"></path></g><g><path d="M42.6036,31.7263c1.2414,0.3127,2.0822,1.2158,2.4176,2.3013h3.8275c-0.1736-2.7714-1.0523-5.3499-2.4697-7.5593     c-1.245,0.7561-2.6992,1.4015-4.2959,1.9102C42.3121,29.4372,42.4854,30.5582,42.6036,31.7263z"></path></g><g><path d="M38.4317,49.968c2.4969-0.9131,4.7377-2.4589,6.506-4.4805c-1.0156-0.571-2.1879-1.0632-3.4631-1.4661     C40.7224,46.4446,39.6742,48.4648,38.4317,49.968z"></path></g></g></g></svg></svg> <defs><filter id="colors4158773254"><feColorMatrix type="matrix" values="0 0 0 0 0  0 0 0 0 0  0 0 0 0 0  0 0 0 1 0" class="icon-fecolormatrix"></feColorMatrix></filter> <filter id="colorsf5553032648"><feColorMatrix type="matrix" values="0 0 0 0 0.99609375  0 0 0 0 0.99609375  0 0 0 0 0.99609375  0 0 0 1 0" class="icon-fecolormatrix"></feColorMatrix></filter> <filter id="colorsb8061996895"><feColorMatrix type="matrix" values="0 0 0 0 0  0 0 0 0 0  0 0 0 0 0  0 0 0 1 0" class="icon-fecolormatrix"></feColorMatrix></filter></defs></g></g> <g data-d="text" transform="translate(0,45.69261169433594)"><g data-gra="path-name" fill-rule="" stroke="black" class="tp-name iconsvg-namesvg" transform="translate(0,0)"><g transform="scale(3.1400000000000015)"><g><path d="M0.51 0L0.45-1.25 1.34-1.49 1.34-6.14Q1.34-6.46 1.29-6.56 1.25-6.67 1.04-6.75L1.04-6.75 0.4-7.11 0.48-8.1Q1.4-8.24 2.24-8.31 3.07-8.38 4.02-8.38L4.02-8.38Q5.34-8.38 6.14-8.1 6.94-7.82 7.31-7.22 7.68-6.62 7.68-5.63L7.68-5.63Q7.68-4.35 6.76-3.62 5.84-2.88 4.24-2.88L4.24-2.88 3.57-2.91 3.57-1.98Q3.57-1.69 3.61-1.6 3.65-1.51 3.82-1.43L3.82-1.43 4.57-0.99 4.52 0 0.51 0ZM4.35-4.24Q5.01-4.24 5.31-4.37L5.31-4.37Q5.45-4.97 5.45-5.63L5.45-5.63Q5.45-6.35 5.17-6.66 4.9-6.96 4.29-6.96L4.29-6.96Q4.08-6.96 3.57-6.91L3.57-6.91 3.57-4.31Q3.9-4.24 4.35-4.24L4.35-4.24ZM14.25 0L14.19-1.2 15.25-1.49 15.25-6.78 14.22-6.69 13.32-5.61 12.43-5.68Q12.43-6.69 12.53-8.23L12.53-8.23 20.17-8.23Q20.27-6.69 20.27-5.68L20.27-5.68 19.39-5.61 18.47-6.69 17.47-6.78 17.47-1.98Q17.47-1.69 17.51-1.6 17.55-1.51 17.72-1.43L17.72-1.43 18.47-0.98 18.42 0 14.25 0ZM25.01 0L24.95-1.28 25.72-1.49 25.72-6.17Q25.72-6.49 25.68-6.59 25.64-6.69 25.44-6.78L25.44-6.78 24.93-7.07 24.97-8.23 28.78-8.23 28.84-6.99 27.93-6.74 27.93-4.45 30.07-6.75Q30.12-6.8 30.12-6.89L30.12-6.89Q30.12-6.95 30.08-7L30.08-7 29.73-7.43 29.86-8.23 32.7-8.23 32.84-7.4 30.05-4.41 33.04-0.55 33.04 0 30.71 0 27.93-3.68 27.93-1.98Q27.93-1.71 27.98-1.61 28.02-1.51 28.2-1.42L28.2-1.42 28.85-1.05 28.8 0 25.01 0ZM39.37 0L39.31-1.2 40.37-1.49 40.37-6.78 39.35-6.69 38.44-5.61 37.55-5.68Q37.55-6.69 37.65-8.23L37.65-8.23 45.3-8.23Q45.39-6.69 45.39-5.68L45.39-5.68 44.51-5.61 43.6-6.69 42.6-6.78 42.6-1.98Q42.6-1.69 42.63-1.6 42.67-1.51 42.84-1.43L42.84-1.43 43.6-0.98 43.55 0 39.37 0Z" transform="translate(-0.4000000059604645, 8.380000114440918)" stroke-width="6.5" stroke-linejoin="round" stroke="black"></path></g> <!----> <!----> <!----> <!----> <!----> <!----> <!----></g></g> <g data-gra="path-slogan" fill-rule="" class="tp-slogan iconsvg-slogansvg" fill="#000000" transform="translate(0.6958999633789062,32.563201904296875)"><rect width="0"></rect> <rect x="142.87680053710938" width="0"></rect> <g transform="translate(0,0)"><g transform="scale(1.3800000000000003)"><path d="M1.08 0L1.08-7.87L2.11-7.87L4.96-2.93L5.81-1.30L5.86-1.30Q5.82-1.90 5.78-2.54Q5.74-3.18 5.74-3.80L5.74-3.80L5.74-7.87L6.68-7.87L6.68 0L5.65 0L2.80-4.96L1.94-6.58L1.90-6.58Q1.94-5.98 1.99-5.36Q2.03-4.74 2.03-4.12L2.03-4.12L2.03 0L1.08 0ZM8.84 0L8.84-7.87L13.38-7.87L13.38-7.03L9.84-7.03L9.84-4.56L12.83-4.56L12.83-3.71L9.84-3.71L9.84-0.85L13.50-0.85L13.50 0L8.84 0ZM16.80 0L16.80-7.03L14.42-7.03L14.42-7.87L20.18-7.87L20.18-7.03L17.81-7.03L17.81 0L16.80 0ZM22.46 0L20.80-7.87L21.83-7.87L22.66-3.59Q22.76-2.94 22.88-2.32Q23.00-1.69 23.11-1.04L23.11-1.04L23.16-1.04Q23.29-1.69 23.44-2.32Q23.58-2.95 23.71-3.59L23.71-3.59L24.80-7.87L25.72-7.87L26.81-3.59Q26.95-2.96 27.10-2.33Q27.24-1.69 27.38-1.04L27.38-1.04L27.43-1.04Q27.54-1.69 27.65-2.32Q27.76-2.95 27.88-3.59L27.88-3.59L28.70-7.87L29.66-7.87L28.03 0L26.83 0L25.64-4.74Q25.54-5.20 25.45-5.63Q25.36-6.07 25.26-6.53L25.26-6.53L25.21-6.53Q25.12-6.07 25.01-5.63Q24.91-5.20 24.82-4.74L24.82-4.74L23.65 0L22.46 0ZM33.86 0.14L33.86 0.14Q33.12 0.14 32.50-0.14Q31.88-0.43 31.44-0.97Q31.00-1.50 30.75-2.26Q30.50-3.02 30.50-3.97L30.50-3.97Q30.50-4.92 30.75-5.67Q31.00-6.42 31.44-6.94Q31.88-7.46 32.50-7.74Q33.12-8.02 33.86-8.02L33.86-8.02Q34.61-8.02 35.23-7.73Q35.84-7.45 36.29-6.93Q36.74-6.41 36.99-5.66Q37.24-4.91 37.24-3.97L37.24-3.97Q37.24-3.02 36.99-2.26Q36.74-1.50 36.29-0.97Q35.84-0.43 35.23-0.14Q34.61 0.14 33.86 0.14ZM33.86-0.73L33.86-0.73Q34.39-0.73 34.82-0.96Q35.24-1.19 35.55-1.61Q35.86-2.04 36.02-2.63Q36.19-3.23 36.19-3.97L36.19-3.97Q36.19-4.70 36.02-5.29Q35.86-5.88 35.55-6.29Q35.24-6.70 34.82-6.92Q34.39-7.14 33.86-7.14L33.86-7.14Q33.34-7.14 32.91-6.92Q32.48-6.70 32.18-6.29Q31.87-5.88 31.70-5.29Q31.54-4.70 31.54-3.97L31.54-3.97Q31.54-3.23 31.70-2.63Q31.87-2.04 32.18-1.61Q32.48-1.19 32.91-0.96Q33.34-0.73 33.86-0.73ZM39.92-7.07L39.92-4.14L41.24-4.14Q42.17-4.14 42.66-4.52Q43.15-4.90 43.15-5.66L43.15-5.66Q43.15-6.44 42.66-6.76Q42.17-7.07 41.24-7.07L41.24-7.07L39.92-7.07ZM44.38 0L43.25 0L41.35-3.32L39.92-3.32L39.92 0L38.93 0L38.93-7.87L41.39-7.87Q41.99-7.87 42.50-7.76Q43.01-7.64 43.37-7.38Q43.74-7.12 43.94-6.70Q44.15-6.28 44.15-5.66L44.15-5.66Q44.15-4.74 43.67-4.19Q43.19-3.64 42.38-3.43L42.38-3.43L44.38 0ZM45.90 0L45.90-7.87L46.90-7.87L46.90-3.92L46.93-3.92L50.21-7.87L51.34-7.87L48.88-4.87L51.72 0L50.60 0L48.25-4.09L46.90-2.50L46.90 0L45.90 0ZM55.27 0L55.27-7.87L56.45-7.87L57.97-3.65L58.55-2.04L58.60-2.04L59.15-3.65L60.66-7.87L61.84-7.87L61.84 0L60.89 0L60.89-4.33Q60.89-4.86 60.93-5.50Q60.97-6.13 61.02-6.66L61.02-6.66L60.97-6.66L60.34-4.91L58.82-0.79L58.26-0.79L56.74-4.91L56.11-6.66L56.06-6.66Q56.10-6.13 56.15-5.50Q56.20-4.86 56.20-4.33L56.20-4.33L56.20 0L55.27 0ZM66.90 0.14L66.90 0.14Q66.16 0.14 65.54-0.14Q64.92-0.43 64.48-0.97Q64.03-1.50 63.79-2.26Q63.54-3.02 63.54-3.97L63.54-3.97Q63.54-4.92 63.79-5.67Q64.03-6.42 64.48-6.94Q64.92-7.46 65.54-7.74Q66.16-8.02 66.90-8.02L66.90-8.02Q67.64-8.02 68.26-7.73Q68.88-7.45 69.33-6.93Q69.78-6.41 70.03-5.66Q70.27-4.91 70.27-3.97L70.27-3.97Q70.27-3.02 70.03-2.26Q69.78-1.50 69.33-0.97Q68.88-0.43 68.26-0.14Q67.64 0.14 66.90 0.14ZM66.90-0.73L66.90-0.73Q67.43-0.73 67.85-0.96Q68.28-1.19 68.59-1.61Q68.89-2.04 69.06-2.63Q69.23-3.23 69.23-3.97L69.23-3.97Q69.23-4.70 69.06-5.29Q68.89-5.88 68.59-6.29Q68.28-6.70 67.85-6.92Q67.43-7.14 66.90-7.14L66.90-7.14Q66.37-7.14 65.95-6.92Q65.52-6.70 65.21-6.29Q64.91-5.88 64.74-5.29Q64.57-4.70 64.57-3.97L64.57-3.97Q64.57-3.23 64.74-2.63Q64.91-2.04 65.21-1.61Q65.52-1.19 65.95-0.96Q66.37-0.73 66.90-0.73ZM71.96 0L71.96-7.87L73.00-7.87L75.84-2.93L76.69-1.30L76.74-1.30Q76.70-1.90 76.66-2.54Q76.62-3.18 76.62-3.80L76.62-3.80L76.62-7.87L77.57-7.87L77.57 0L76.54 0L73.68-4.96L72.83-6.58L72.78-6.58Q72.83-5.98 72.87-5.36Q72.91-4.74 72.91-4.12L72.91-4.12L72.91 0L71.96 0ZM79.73 0L79.73-7.87L80.72-7.87L80.72 0L79.73 0ZM84.52 0L84.52-7.03L82.14-7.03L82.14-7.87L87.90-7.87L87.90-7.03L85.52-7.03L85.52 0L84.52 0ZM91.93 0.14L91.93 0.14Q91.19 0.14 90.57-0.14Q89.95-0.43 89.51-0.97Q89.06-1.50 88.82-2.26Q88.57-3.02 88.57-3.97L88.57-3.97Q88.57-4.92 88.82-5.67Q89.06-6.42 89.51-6.94Q89.95-7.46 90.57-7.74Q91.19-8.02 91.93-8.02L91.93-8.02Q92.68-8.02 93.29-7.73Q93.91-7.45 94.36-6.93Q94.81-6.41 95.06-5.66Q95.30-4.91 95.30-3.97L95.30-3.97Q95.30-3.02 95.06-2.26Q94.81-1.50 94.36-0.97Q93.91-0.43 93.29-0.14Q92.68 0.14 91.93 0.14ZM91.93-0.73L91.93-0.73Q92.46-0.73 92.89-0.96Q93.31-1.19 93.62-1.61Q93.92-2.04 94.09-2.63Q94.26-3.23 94.26-3.97L94.26-3.97Q94.26-4.70 94.09-5.29Q93.92-5.88 93.62-6.29Q93.31-6.70 92.89-6.92Q92.46-7.14 91.93-7.14L91.93-7.14Q91.40-7.14 90.98-6.92Q90.55-6.70 90.25-6.29Q89.94-5.88 89.77-5.29Q89.60-4.70 89.60-3.97L89.60-3.97Q89.60-3.23 89.77-2.63Q89.94-2.04 90.25-1.61Q90.55-1.19 90.98-0.96Q91.40-0.73 91.93-0.73ZM97.99-7.07L97.99-4.14L99.31-4.14Q100.24-4.14 100.73-4.52Q101.22-4.90 101.22-5.66L101.22-5.66Q101.22-6.44 100.73-6.76Q100.24-7.07 99.31-7.07L99.31-7.07L97.99-7.07ZM102.44 0L101.32 0L99.42-3.32L97.99-3.32L97.99 0L97.00 0L97.00-7.87L99.46-7.87Q100.06-7.87 100.57-7.76Q101.08-7.64 101.44-7.38Q101.81-7.12 102.01-6.70Q102.22-6.28 102.22-5.66L102.22-5.66Q102.22-4.74 101.74-4.19Q101.26-3.64 100.45-3.43L100.45-3.43L102.44 0Z" transform="translate(-1.08, 8.016)"></path></g></g></g></g></g></g></mask><defs v-gra="od"></defs></svg>